HIERARCHY
ROOT Hips
{
	OFFSET 56.877701 -32.693596 43.373703
	CHANNELS 6 Xposition Yposition Zposition Zrotation Xrotation Yrotation
	JOINT Chest
	{
		OFFSET -0.779999 1.005800 5.403099
		CHANNELS 6 Xposition Yposition Zposition Zrotation Xrotation Yrotation
		JOINT Chest2
		{
			OFFSET 0.000000 0.000000 4.236801
			CHANNELS 6 Xposition Yposition Zposition Zrotation Xrotation Yrotation
			JOINT Neck
			{
				OFFSET 0.000000 0.000000 9.874401
				CHANNELS 6 Xposition Yposition Zposition Zrotation Xrotation Yrotation
				JOINT Head
				{
					OFFSET 0.000000 0.000002 2.173893
					CHANNELS 6 Xposition Yposition Zposition Zrotation Xrotation Yrotation
					End Site
					{
						OFFSET 0.000000 0.000000 6.508102
					}
				}
			}
			JOINT LeftCollar
			{
				OFFSET 2.681599 -0.377600 5.432499
				CHANNELS 6 Xposition Yposition Zposition Zrotation Xrotation Yrotation
				JOINT LeftShoulder
				{
					OFFSET 5.161499 0.000000 0.000000
					CHANNELS 6 Xposition Yposition Zposition Zrotation Xrotation Yrotation
					JOINT LeftElbow
					{
						OFFSET 0.000000 0.000000 -10.869099
						CHANNELS 6 Xposition Yposition Zposition Zrotation Xrotation Yrotation
						JOINT LeftWrist
						{
							OFFSET 0.000000 0.000000 -13.344799
							CHANNELS 6 Xposition Yposition Zposition Zrotation Xrotation Yrotation
							End Site
							{
								OFFSET 0.000000 0.000000 -2.173901
							}
						}
					}
				}
			}
			JOINT RightCollar
			{
				OFFSET -2.381901 -1.419600 6.136600
				CHANNELS 6 Xposition Yposition Zposition Zrotation Xrotation Yrotation
				JOINT RightShoulder
				{
					OFFSET -4.550499 0.000000 0.000000
					CHANNELS 6 Xposition Yposition Zposition Zrotation Xrotation Yrotation
					JOINT RightElbow
					{
						OFFSET 0.000000 0.000000 -11.106499
						CHANNELS 6 Xposition Yposition Zposition Zrotation Xrotation Yrotation
						JOINT RightWrist
						{
							OFFSET 0.000000 0.000000 -12.874298
							CHANNELS 6 Xposition Yposition Zposition Zrotation Xrotation Yrotation
							End Site
							{
								OFFSET 0.000000 0.000000 -2.173901
							}
						}
					}
				}
			}
		}
	}
	JOINT LeftHip
	{
		OFFSET 2.431900 0.469601 -2.489399
		CHANNELS 6 Xposition Yposition Zposition Zrotation Xrotation Yrotation
		JOINT LeftKnee
		{
			OFFSET 0.000000 -0.000004 -18.200201
			CHANNELS 6 Xposition Yposition Zposition Zrotation Xrotation Yrotation
			JOINT LeftAnkle
			{
				OFFSET 0.000000 0.000000 -16.279900
				CHANNELS 6 Xposition Yposition Zposition Zrotation Xrotation Yrotation
				End Site
				{
					OFFSET 0.000000 -8.394100 0.000000
				}
			}
		}
	}
	JOINT RightHip
	{
		OFFSET -1.987999 -0.073502 -2.713001
		CHANNELS 6 Xposition Yposition Zposition Zrotation Xrotation Yrotation
		JOINT RightKnee
		{
			OFFSET 0.000000 -0.000004 -19.547802
			CHANNELS 6 Xposition Yposition Zposition Zrotation Xrotation Yrotation
			JOINT RightAnkle
			{
				OFFSET 0.000000 0.000000 -14.881199
				CHANNELS 6 Xposition Yposition Zposition Zrotation Xrotation Yrotation
				End Site
				{
					OFFSET 0.000000 -7.922699 0.000000
				}
			}
		}
	}
}
MOTION
Frames: 4
Frame Time: 0.041667
50.377502 -40.795197 40.999905 1789.286734 14.595062 -3.826967 -0.780003 1.005800 5.403099 12.311322 -14.411230 4.925288 -0.000002 -0.000001 4.236796 -3.794503 -1.342997 0.317719 -0.000002 -0.000001 9.874411 66.586018 0.617201 -12.603435 0.000004 0.000001 2.173893 4.765680 1.581028 10.140276 2.681594 -0.377600 5.432503 7.377641 -4.087992 6.125244 5.161508 -0.000012 -0.000001 181.320690 -99.507954 100.185051 -0.000000 -0.000002 -10.869091 66.412743 -12.582069 25.766935 -0.000009 0.000000 -13.344802 7.797445 -14.500710 -31.423409 -2.381901 -1.419605 6.136600 -0.185059 -27.132672 50.962514 -4.550510 -0.000006 0.000014 -796.144280 -485.069817 -366.954044 -0.000004 -0.000010 -11.106500 -110.729873 -59.720387 -112.541744 -0.000000 -0.000012 -12.874299 -780.871267 -4.095863 -10.361191 2.431899 0.469606 -2.489399 30.342948 -31.991858 18.709953 0.000006 -0.000004 -18.200203 -55.661718 51.405424 34.658787 -0.000011 0.000002 -16.279896 20.454842 16.550580 -11.595442 -1.987993 -0.073496 -2.713001 -96.863106 -43.198621 -55.321298 -0.000002 0.000004 -19.547798 -761.221687 145.449288 27.062657 0.000005 0.000001 -14.881193 537.041273 125.284411 142.293877
50.368401 -40.799194 41.005501 1789.520928 14.997506 -4.060775 -0.779998 1.005805 5.403091 12.165860 -14.725592 5.244802 0.000003 0.000000 4.236799 -3.870249 -1.440518 0.294931 -0.000003 -0.000006 9.874409 66.646746 0.498083 -12.566354 -0.000000 0.000003 2.173892 4.710323 1.614110 10.119091 2.681599 -0.377604 5.432504 7.631113 -4.176963 6.027344 5.161500 0.000004 0.000001 181.241406 -99.660800 100.342029 -0.000002 0.000003 -10.869100 66.508011 -12.689641 25.713181 0.000002 0.000003 -13.344810 7.894158 -14.456900 -31.354144 -2.381904 -1.419605 6.136592 -0.459347 -27.376163 50.592946 -4.550497 -0.000003 0.000011 -795.642726 -485.278438 -366.773208 -0.000006 -0.000010 -11.106484 -110.509476 -59.669147 -112.422216 0.000007 0.000002 -12.874299 -780.868426 -4.079137 -10.380771 2.431893 0.469603 -2.489399 30.398822 -32.238626 19.136221 0.000010 -0.000004 -18.200203 -55.941913 51.284199 34.796822 -0.000005 -0.000001 -16.279902 20.615415 16.529608 -11.566176 -1.987997 -0.073496 -2.713003 -97.390711 -43.348100 -55.822224 -0.000000 0.000002 -19.547800 -761.352936 145.479505 27.116865 0.000001 -0.000001 -14.881203 536.970785 125.334613 142.234742
50.359203 -40.805496 41.013103 1789.471532 15.153862 -4.089152 -0.779994 1.005802 5.403102 12.223365 -14.771915 5.365481 0.000007 0.000006 4.236799 -3.956247 -1.481999 0.278901 0.000006 0.000007 9.874403 66.699823 0.326934 -12.414773 0.000012 -0.000000 2.173884 4.666206 1.649991 10.010077 2.681600 -0.377598 5.432508 7.967422 -4.383421 5.947202 5.161505 0.000001 0.000007 181.413677 -99.779816 100.750051 0.000005 -0.000002 -10.869093 66.624240 -12.707151 25.732055 -0.000002 0.000005 -13.344799 7.907741 -14.357847 -31.266434 -2.381900 -1.419596 6.136599 -0.833958 -27.830383 50.119607 -4.550505 -0.000007 0.000006 -795.124233 -485.539187 -366.711108 0.000001 -0.000010 -11.106485 -110.370325 -59.628255 -112.300072 0.000004 -0.000016 -12.874298 -780.875310 -4.106318 -10.424482 2.431898 0.469608 -2.489397 30.564379 -32.308806 19.260155 0.000006 -0.000005 -18.200201 -56.454806 51.042984 35.070265 -0.000005 -0.000001 -16.279900 21.067795 16.458268 -11.430979 -1.987997 -0.073499 -2.712997 -97.339266 -43.433743 -55.888487 -0.000008 -0.000001 -19.547802 -761.516970 145.493876 27.165302 -0.000002 -0.000001 -14.881196 536.901008 125.364734 142.258784
50.350296 -40.812996 41.022705 1789.409678 15.268828 -4.122448 -0.779991 1.005804 5.403095 12.285692 -14.744473 5.470177 -0.000004 -0.000005 4.236796 -4.033073 -1.541562 0.261909 -0.000002 0.000005 9.874408 66.744793 0.163863 -12.214406 0.000003 -0.000003 2.173883 4.602125 1.685976 9.902624 2.681602 -0.377598 5.432505 8.338654 -4.600942 5.908214 5.161512 0.000002 -0.000001 181.301361 -99.870268 100.919788 -0.000007 -0.000002 -10.869103 66.797549 -12.665611 25.751751 0.000003 -0.000003 -13.344801 7.822576 -14.202314 -31.251469 -2.381897 -1.419601 6.136600 -1.287877 -28.381326 49.606247 -4.550499 0.000000 0.000019 -794.623771 -485.807805 -366.769629 -0.000003 -0.000005 -11.106504 -110.346508 -59.612040 -112.207126 -0.000000 -0.000004 -12.874296 -780.889080 -4.147905 -10.472925 2.431905 0.469604 -2.489393 30.704098 -32.332698 19.347202 0.000007 -0.000004 -18.200205 -57.104903 50.709046 35.435295 0.000003 0.000004 -16.279898 21.434935 16.420395 -11.246589 -1.987986 -0.073498 -2.713003 -97.237490 -43.538833 -55.892702 0.000003 0.000006 -19.547800 -761.627673 145.479969 27.175310 0.000003 -0.000001 -14.881199 536.846585 125.356046 142.401726
